<?xml version="1.0" encoding="utf-8"?>
<!-- Generator: Adobe Illustrator 16.0.0, SVG Export Plug-In . SVG Version: 6.00 Build 0)  -->
<!DOCTYPE svg PUBLIC "-//W3C//DTD SVG 1.1//EN" "http://www.w3.org/Graphics/SVG/1.1/DTD/svg11.dtd">
<svg version="1.1" id="pattern" xmlns="http://www.w3.org/2000/svg" xmlns:xlink="http://www.w3.org/1999/xlink" x="0px" y="0px"
	 width="1097.897px" height="599.97px" viewBox="0 0 1097.897 599.97" enable-background="new 0 0 1097.897 599.97"
	 xml:space="preserve">
<linearGradient id="SVGID_1_" gradientUnits="userSpaceOnUse" x1="131.2314" y1="41.0728" x2="970.5267" y2="525.6401">
	<stop  offset="0" style="stop-color:#5D85DE"/>
	<stop  offset="0.2578" style="stop-color:#739EEA"/>
	<stop  offset="0.7121" style="stop-color:#DC67F4"/>
	<stop  offset="0.9998" style="stop-color:#DB31F6"/>
</linearGradient>
<path fill="url(#SVGID_1_)" d="M140.003,36.729c0,0-3.509-28.834,28.492-28.834s764.674-1.664,766.338,0s24,0.334,24,36.999
	s0,501.001,0,501.001h-818L140.003,36.729z"/>
<linearGradient id="SVGID_2_" gradientUnits="userSpaceOnUse" x1="4" y1="559.811" x2="1094.8335" y2="559.811">
	<stop  offset="0" style="stop-color:#739EEA"/>
	<stop  offset="1" style="stop-color:#DC67F4"/>
</linearGradient>
<path fill="url(#SVGID_2_)" d="M4,543.728l0.414,30.251c0,0,1.414,1.916,15.414,1.916s1064.006,0,1064.006,0l11-2.671v-28.329
	L4,543.728z"/>
<linearGradient id="SVGID_3_" gradientUnits="userSpaceOnUse" x1="4.4136" y1="583.3716" x2="1094.8335" y2="583.3716">
	<stop  offset="0" style="stop-color:#4979CE"/>
	<stop  offset="1" style="stop-color:#C124E2"/>
</linearGradient>
<path fill="url(#SVGID_3_)" d="M4.414,573.979c0,0,12.748,18.578,76.748,19.244s962,0,962,0s42.011-9.332,51.672-19.999
	C1069.162,573.224,4.414,573.979,4.414,573.979z"/>
<linearGradient id="SVGID_4_" gradientUnits="userSpaceOnUse" x1="67.4546" y1="133.5352" x2="346.1948" y2="298.6142">
	<stop  offset="0" style="stop-color:#FFFFFF;stop-opacity:0.4"/>
	<stop  offset="1" style="stop-color:#FFFFFF;stop-opacity:0"/>
</linearGradient>
<path fill="url(#SVGID_4_)" d="M147.833,537.895c0,0,0-490.22,0-499.722c0-9.501,4.386-24.278,24.618-24.278
	c20.231,0,295.382,0,295.382,0L147.833,537.895z"/>
<linearGradient id="SVGID_5_" gradientUnits="userSpaceOnUse" x1="61.3228" y1="426.8599" x2="552.6227" y2="717.8237">
	<stop  offset="0" style="stop-color:#FFFFFF;stop-opacity:0.4"/>
	<stop  offset="1" style="stop-color:#FFFFFF;stop-opacity:0"/>
</linearGradient>
<polygon opacity="0.6" fill="url(#SVGID_5_)" points="9.833,566.977 9.833,550.478 557.156,549.895 "/>
<linearGradient id="SVGID_6_" gradientUnits="userSpaceOnUse" x1="511.4956" y1="536.1899" x2="597.6786" y2="587.2303">
	<stop  offset="0" style="stop-color:#6764D3"/>
	<stop  offset="1" style="stop-color:#A03BDD"/>
</linearGradient>
<path opacity="0.7" fill="url(#SVGID_6_)" d="M596.833,558.895c0,3.313-2.686,6-6,6h-82c-3.313,0-6-2.687-6-6l0,0
	c0-3.313,2.686-6,6-6h82C594.148,552.895,596.833,555.582,596.833,558.895L596.833,558.895z"/>
<linearGradient id="SVGID_7_" gradientUnits="userSpaceOnUse" x1="545.2964" y1="19.8198" x2="558.8693" y2="27.8581">
	<stop  offset="0" style="stop-color:#6764D3"/>
	<stop  offset="1" style="stop-color:#A03BDD"/>
</linearGradient>
<path opacity="0.5" fill="url(#SVGID_7_)" d="M557.833,23.395c0,3.59-2.91,6.5-6.5,6.5l0,0c-3.59,0-6.5-2.91-6.5-6.5l0,0
	c0-3.59,2.91-6.5,6.5-6.5l0,0C554.923,16.895,557.833,19.805,557.833,23.395L557.833,23.395z"/>
<linearGradient id="SVGID_8_" gradientUnits="userSpaceOnUse" x1="550.8335" y1="547.4692" x2="550.8335" y2="438.2767">
	<stop  offset="0" style="stop-color:#6764D3;stop-opacity:0.5"/>
	<stop  offset="0.8836" style="stop-color:#7957D6;stop-opacity:0"/>
</linearGradient>
<rect x="142.833" y="453.895" fill="url(#SVGID_8_)" width="816" height="90"/>
</svg>
