<?xml version="1.0" encoding="utf-8"?>
<!-- Generator: Adobe Illustrator 16.0.0, SVG Export Plug-In . SVG Version: 6.00 Build 0)  -->
<!DOCTYPE svg PUBLIC "-//W3C//DTD SVG 1.1//EN" "http://www.w3.org/Graphics/SVG/1.1/DTD/svg11.dtd">
<svg version="1.1" id="Layer_1" xmlns="http://www.w3.org/2000/svg" xmlns:xlink="http://www.w3.org/1999/xlink" x="0px" y="0px"
	 width="137.5px" height="118.667px" viewBox="0 0 137.5 118.667" enable-background="new 0 0 137.5 118.667" xml:space="preserve">
<g>
	<path fill="none" stroke="#FFFFFF" stroke-width="2" stroke-miterlimit="10" d="M53.749,68.394c0,0,3.417,1.708,6.103,4.638
		c2.687,2.93,3.664,6.593,3.664,6.593s16.848-9.767,26.368-19.044c9.521-9.277,35.076-48.637,36.541-50.59
		c1.952-2.44,0.243-4.882-2.441-2.929c-3.419,2.198-41.912,27.395-51.435,37.405C63.027,54.477,53.749,68.394,53.749,68.394z"/>
	<path fill="none" stroke="#FFFFFF" stroke-width="2" stroke-miterlimit="10" d="M48.62,72.543c1.711,0.244,3.663,1.465,6.837,4.883
		s3.174,6.837,3.174,6.837s-0.732,16.358-14.65,24.903c-13.916,8.545-34.668,0-34.668,0s13.184-1.709,18.799-12.939
		c2.93-5.617,1.952-11.965,5.859-16.604S46.91,72.299,48.62,72.543z"/>
</g>
</svg>
