<?xml version="1.0" encoding="utf-8"?>
<!-- Generator: Adobe Illustrator 16.0.0, SVG Export Plug-In . SVG Version: 6.00 Build 0)  -->
<!DOCTYPE svg PUBLIC "-//W3C//DTD SVG 1.1//EN" "http://www.w3.org/Graphics/SVG/1.1/DTD/svg11.dtd">
<svg version="1.1" id="Layer_1" xmlns="http://www.w3.org/2000/svg" xmlns:xlink="http://www.w3.org/1999/xlink" x="0px" y="0px"
	 width="121.875px" height="120.49px" viewBox="0 0 121.875 120.49" enable-background="new 0 0 121.875 120.49"
	 xml:space="preserve">
<g>
	<path fill="none" stroke="#FFFFFF" stroke-width="2" stroke-miterlimit="10" d="M34.302,49.166c0,0,18.938-10.124,30.833-21.582
		C74.527,18.534,74.527,2.415,85.176,6c14.391,4.844-7.708,43.166-7.708,43.166s25.251-0.889,30.834,0
		c9.905,1.577,7.192,20.042,0,20.042c4.95,4.886-1.385,19.291-8.657,16.841c5.061,7.312-4.191,17.736-9.844,16.195
		c3.599,6.166-6.341,14.749-10.79,13.214c-4.452-1.534-44.709-15.417-44.709-15.417V49.166z"/>
	<path fill="none" stroke="#FFFFFF" stroke-width="2" stroke-miterlimit="10" d="M9.999,96.502c0,1.767,1.399,3.196,3.125,3.196
		h12.5c1.726,0,3.125-1.43,3.125-3.196V52.078c0-1.765-1.399-3.196-3.125-3.196h-12.5c-1.726,0-3.125,1.432-3.125,3.196V96.502z"/>
</g>
</svg>
