<?xml version="1.0" encoding="utf-8"?>
<!-- Generator: Adobe Illustrator 16.0.0, SVG Export Plug-In . SVG Version: 6.00 Build 0)  -->
<!DOCTYPE svg PUBLIC "-//W3C//DTD SVG 1.1//EN" "http://www.w3.org/Graphics/SVG/1.1/DTD/svg11.dtd">
<svg version="1.1" id="Layer_1" xmlns="http://www.w3.org/2000/svg" xmlns:xlink="http://www.w3.org/1999/xlink" x="0px" y="0px"
	 width="147.205px" height="123.438px" viewBox="0 0 147.205 123.438" enable-background="new 0 0 147.205 123.438"
	 xml:space="preserve">
<g>
	<path fill="none" stroke="#FFFFFF" stroke-width="2" stroke-miterlimit="10" d="M139.205,86.166c0,3.995-3.238,7.233-7.232,7.233
		H13.539c-3.994,0-7.232-3.238-7.232-7.233V24.689c0-3.995,3.238-7.233,7.232-7.233h118.434c3.994,0,7.232,3.238,7.232,7.233V86.166
		z"/>
	<path fill="none" stroke="#FFFFFF" stroke-width="2" stroke-miterlimit="10" d="M56.396,12.953c0-3.13,3.123-5.667,6.976-5.667
		h18.599c3.852,0,6.975,2.537,6.975,5.667H56.396z"/>
	<line fill="none" stroke="#FFFFFF" stroke-width="2" stroke-miterlimit="10" x1="73.273" y1="97.646" x2="73.273" y2="112.112"/>
	<line fill="none" stroke="#FFFFFF" stroke-width="2" stroke-miterlimit="10" x1="72.973" y1="103.372" x2="56.999" y2="116.332"/>
	<line fill="none" stroke="#FFFFFF" stroke-width="2" stroke-miterlimit="10" x1="73.576" y1="103.372" x2="89.549" y2="116.332"/>
	<g>
		<path fill="none" stroke="#FFFFFF" stroke-width="2" stroke-miterlimit="10" d="M122.412,72.259
			c1.776,1.543,1.965,4.235,0.422,6.011l0,0c-1.546,1.777-4.236,1.965-6.012,0.422L87.293,53.026
			c-1.777-1.544-1.965-4.235-0.422-6.011l0,0c1.544-1.777,4.235-1.966,6.011-0.422L122.412,72.259z"/>
		<line fill="none" stroke="#FFFFFF" stroke-width="2" stroke-miterlimit="10" x1="82.183" y1="43.314" x2="74.893" y2="36.979"/>
		<line fill="none" stroke="#FFFFFF" stroke-width="2" stroke-miterlimit="10" x1="101.558" y1="35.312" x2="95.221" y2="42.604"/>
		<line fill="none" stroke="#FFFFFF" stroke-width="2" stroke-miterlimit="10" x1="87.511" y1="30.247" x2="88.185" y2="39.883"/>
		<line fill="none" stroke="#FFFFFF" stroke-width="2" stroke-miterlimit="10" x1="77.327" y1="63.19" x2="83.665" y2="55.899"/>
		<line fill="none" stroke="#FFFFFF" stroke-width="2" stroke-miterlimit="10" x1="70.354" y1="49.986" x2="79.989" y2="49.312"/>
	</g>
	<line fill="none" stroke="#FFFFFF" stroke-width="2" stroke-miterlimit="10" x1="24.149" y1="40.989" x2="57.903" y2="40.989"/>
	<line fill="none" stroke="#FFFFFF" stroke-width="2" stroke-miterlimit="10" x1="24.149" y1="54.551" x2="57.903" y2="54.551"/>
	<line fill="none" stroke="#FFFFFF" stroke-width="2" stroke-miterlimit="10" x1="24.149" y1="67.811" x2="47.958" y2="67.811"/>
</g>
</svg>
