<?xml version="1.0" encoding="utf-8"?>
<!-- Generator: Adobe Illustrator 16.0.0, SVG Export Plug-In . SVG Version: 6.00 Build 0)  -->
<!DOCTYPE svg PUBLIC "-//W3C//DTD SVG 1.1//EN" "http://www.w3.org/Graphics/SVG/1.1/DTD/svg11.dtd">
<svg version="1.1" id="Layer_1" xmlns="http://www.w3.org/2000/svg" xmlns:xlink="http://www.w3.org/1999/xlink" x="0px" y="0px"
	 width="147.333px" height="117.887px" viewBox="0 0 147.333 117.887" enable-background="new 0 0 147.333 117.887"
	 xml:space="preserve">
<g>
	<polygon fill="none" stroke="#FFFFFF" stroke-width="2" stroke-miterlimit="10" points="81.108,15.951 95.624,20.294 99.944,7.953 
		113.805,9.602 97.921,3 93.53,16.411 	"/>
	<path fill="none" stroke="#FFFFFF" stroke-width="2" stroke-miterlimit="10" d="M64.42,18.054
		c-1.691,0.914-39.748,21.444-43.976,23.725c-7.189,3.879-25.003,25.499-10.86,51.714c14.143,26.219,39.608,22.487,48.911,17.47
		c5.074-2.737,41.58-22.433,43.412-23.421c1.833-0.987,2.612-3.591,1.699-5.281c-0.912-1.693-5.627-10.433-6.691-12.404
		c-1.064-1.974-3.895-3.849-6.293-2.557c-2.396,1.292-34.966,19.173-38.349,20.997c-5.356,2.891-15.953,3.149-21.542-7.211
		c-5.59-10.36,0.869-19.304,5.661-21.889c3.242-1.75,37.287-19.932,39.119-20.921c1.831-0.989,2.317-3.798,0.949-6.336
		c-1.37-2.538-5.171-9.585-6.235-11.558C69.16,18.408,66.112,17.142,64.42,18.054z"/>
	<line fill="none" stroke="#FFFFFF" stroke-width="2" stroke-miterlimit="10" x1="53.762" y1="23.804" x2="64.669" y2="44.022"/>
	<line fill="none" stroke="#FFFFFF" stroke-width="2" stroke-miterlimit="10" x1="80.623" y1="73.594" x2="91.249" y2="93.292"/>
	<polygon fill="none" stroke="#FFFFFF" stroke-width="2" stroke-miterlimit="10" points="109.993,69.494 124.509,73.836 
		128.829,61.495 142.69,63.146 126.807,56.543 122.415,69.953 	"/>
</g>
</svg>
