<?xml version="1.0" encoding="utf-8"?>
<!-- Generator: Adobe Illustrator 16.0.0, SVG Export Plug-In . SVG Version: 6.00 Build 0)  -->
<!DOCTYPE svg PUBLIC "-//W3C//DTD SVG 1.1//EN" "http://www.w3.org/Graphics/SVG/1.1/DTD/svg11.dtd">
<svg version="1.1" id="PATTERN" xmlns="http://www.w3.org/2000/svg" xmlns:xlink="http://www.w3.org/1999/xlink" x="0px" y="0px"
	 width="24.667px" height="25px" viewBox="0 0 24.667 25" enable-background="new 0 0 24.667 25" xml:space="preserve">
<path fill="#DD30F7" d="M21.5,10.167h-6.667V3.5c0-1.289-1.044-2.333-2.333-2.333h-0.334c-1.289,0-2.333,1.044-2.333,2.333v6.667
	H3.167c-1.289,0-2.333,1.044-2.333,2.333v0.334c0,1.289,1.044,2.333,2.333,2.333h6.667v6.667c0,1.289,1.044,2.333,2.333,2.333H12.5
	c1.289,0,2.333-1.044,2.333-2.333v-6.667H21.5c1.289,0,2.333-1.044,2.333-2.333V12.5C23.833,11.211,22.789,10.167,21.5,10.167z"/>
</svg>
