<?xml version="1.0" encoding="utf-8"?>
<!-- Generator: Adobe Illustrator 16.0.0, SVG Export Plug-In . SVG Version: 6.00 Build 0)  -->
<!DOCTYPE svg PUBLIC "-//W3C//DTD SVG 1.1//EN" "http://www.w3.org/Graphics/SVG/1.1/DTD/svg11.dtd">
<svg version="1.1" id="Layer_1" xmlns="http://www.w3.org/2000/svg" xmlns:xlink="http://www.w3.org/1999/xlink" x="0px" y="0px"
	 width="129.688px" height="117.188px" viewBox="0 0 129.688 117.188" enable-background="new 0 0 129.688 117.188"
	 xml:space="preserve">
<path fill="none" stroke="#FFFFFF" stroke-width="2" stroke-miterlimit="10" d="M28.896,82.059l26.735,18.6
	c0,0-10.752,6.973-13.658,8.426c-4.65,2.035-8.718-0.58-9.59-5.23C31.967,101.258,28.896,82.059,28.896,82.059z"/>
<path fill="none" stroke="#FFFFFF" stroke-width="2" stroke-miterlimit="10" d="M44.007,82.059c0,0,30.224,20.633,34.291,23.248
	s6.88,0.778,8.718-3.777s33.418-83.983,35.162-87.18c1.744-3.196,0.574-5.864-3.777-4.359
	c-4.352,1.505-100.967,34.561-105.488,36.616c-6.392,2.906-6.577,8.995-3.487,11.042c3.09,2.047,24.12,15.982,24.12,15.982
	l74.683-52.307L44.007,82.059z"/>
</svg>
