<?xml version="1.0" encoding="utf-8"?>
<!-- Generator: Adobe Illustrator 16.0.0, SVG Export Plug-In . SVG Version: 6.00 Build 0)  -->
<!DOCTYPE svg PUBLIC "-//W3C//DTD SVG 1.1//EN" "http://www.w3.org/Graphics/SVG/1.1/DTD/svg11.dtd">
<svg version="1.1" id="Layer_1" xmlns="http://www.w3.org/2000/svg" xmlns:xlink="http://www.w3.org/1999/xlink" x="0px" y="0px"
	 width="360px" height="172px" viewBox="0 0 360 172" enable-background="new 0 0 360 172" xml:space="preserve">
<g>
	<path d="M215.957,96L176.61,28.84L137.873,96c-1.915,0-4.368,0-5.564,0L93.255,28.973L54.553,96.031
		c-1.766,0-9.633-0.018-11.04,0.005l45.578-78.812C89.944,15.746,91.52,15,93.227,15c0.003,0,0.007,0,0.01,0
		c1.704,0,3.278,0.738,4.136,2.21l37.681,64.587l37.328-64.529C173.228,15.8,174.789,15,176.483,15c0.015,0,0.03,0,0.043,0
		c1.679,0,3.236,0.692,4.103,2.132L226.906,96C224.568,96,217.873,96,215.957,96z"/>
</g>
<g>
	<linearGradient id="SVGID_1_" gradientUnits="userSpaceOnUse" x1="9.1001" y1="55.3257" x2="63.5596" y2="55.3257">
		<stop  offset="0" style="stop-color:#EA12FD"/>
		<stop  offset="1" style="stop-color:#9F4EEE"/>
	</linearGradient>
	<path fill="url(#SVGID_1_)" d="M9.1,96l45.526-78.962c1.32-2.289,4.249-3.064,6.539-1.741c2.29,1.322,3.074,4.234,1.752,6.523
		L20.071,96C18.436,96,10.218,96,9.1,96z"/>
</g>
<g>
	<path d="M250.243,96.042l45.637-78.815c0.854-1.479,2.429-2.227,4.135-2.227c0.003,0,0.007,0,0.01,0
		c1.704,0,3.278,0.717,4.136,2.188L350,96c-2.711,0-8.455,0-10.929,0l-39.027-67.027l-38.851,67.058
		C259.458,96.031,252.695,95.921,250.243,96.042z"/>
</g>
<g>
	<g>
		<path d="M8.994,130.763c0-0.295,0.103-0.546,0.307-0.75c0.205-0.204,0.454-0.306,0.75-0.306s0.545,0.102,0.75,0.306
			c0.204,0.204,0.306,0.455,0.306,0.75v19.728c0,0.295-0.102,0.545-0.306,0.749c-0.205,0.204-0.455,0.307-0.75,0.307
			s-0.545-0.103-0.75-0.307c-0.204-0.204-0.307-0.454-0.307-0.749V130.763z"/>
		<path d="M40.51,137.611c0-0.795-0.152-1.544-0.46-2.249c-0.306-0.703-0.727-1.323-1.26-1.856
			c-0.534-0.534-1.153-0.954-1.858-1.262c-0.703-0.307-1.454-0.46-2.248-0.46c-0.795,0-1.545,0.153-2.249,0.46
			c-0.704,0.308-1.317,0.728-1.839,1.262c-0.523,0.533-0.938,1.153-1.243,1.856c-0.308,0.705-0.46,1.454-0.46,2.249v12.879
			c0,0.295-0.103,0.545-0.308,0.749s-0.454,0.307-0.749,0.307c-0.295,0-0.546-0.103-0.75-0.307
			c-0.205-0.204-0.308-0.454-0.308-0.749v-12.879c0-1.09,0.205-2.118,0.614-3.084c0.409-0.965,0.972-1.805,1.687-2.521
			c0.715-0.715,1.555-1.283,2.521-1.703c0.965-0.42,1.993-0.631,3.083-0.631s2.117,0.211,3.083,0.631
			c0.964,0.42,1.806,0.988,2.521,1.703c0.715,0.717,1.283,1.557,1.704,2.521c0.419,0.966,0.63,1.994,0.63,3.084v12.879
			c0,0.295-0.102,0.545-0.307,0.749s-0.454,0.307-0.75,0.307c-0.295,0-0.545-0.103-0.749-0.307
			c-0.205-0.204-0.308-0.454-0.308-0.749V137.611z"/>
		<path d="M73.185,141.563c0-0.295,0.103-0.545,0.307-0.749c0.204-0.205,0.454-0.308,0.749-0.308h4.226
			c0.294,0,0.544,0.103,0.749,0.308c0.204,0.204,0.307,0.454,0.307,0.749c-0.114,1.387-0.477,2.687-1.09,3.901
			c-0.614,1.216-1.403,2.271-2.369,3.168c-0.966,0.898-2.078,1.602-3.339,2.113c-1.262,0.511-2.606,0.766-4.038,0.766
			c-1.499,0-2.908-0.283-4.225-0.852c-1.318-0.566-2.465-1.34-3.441-2.316c-0.977-0.977-1.75-2.123-2.316-3.441
			c-0.568-1.316-0.852-2.726-0.852-4.225s0.284-2.913,0.852-4.243c0.566-1.327,1.34-2.497,2.316-3.508
			c0.976-1.011,2.123-1.807,3.441-2.386c1.317-0.578,2.726-0.869,4.225-0.869c1.521,0,2.947,0.296,4.276,0.887
			c1.329,0.59,2.492,1.396,3.492,2.419c0.25,0.205,0.38,0.454,0.392,0.749c0.011,0.296-0.075,0.557-0.255,0.784
			c-0.227,0.227-0.5,0.335-0.817,0.323c-0.319-0.01-0.603-0.141-0.852-0.392c-0.795-0.818-1.727-1.465-2.794-1.942
			c-1.067-0.477-2.214-0.716-3.441-0.716c-1.204,0-2.339,0.239-3.407,0.716c-1.068,0.478-1.993,1.119-2.776,1.926
			c-0.784,0.806-1.403,1.749-1.857,2.828c-0.455,1.078-0.682,2.221-0.682,3.424s0.227,2.339,0.682,3.407
			c0.454,1.067,1.074,1.993,1.857,2.776s1.708,1.403,2.776,1.857c1.068,0.455,2.204,0.682,3.407,0.682
			c1.044,0,2.033-0.171,2.964-0.513c0.931-0.339,1.772-0.812,2.522-1.413c0.749-0.602,1.384-1.316,1.907-2.146
			c0.522-0.828,0.897-1.731,1.124-2.708H74.24c-0.295,0-0.545-0.103-0.749-0.308C73.287,142.108,73.185,141.859,73.185,141.563z"/>
		<path d="M125.688,130.763c0-0.295,0.103-0.546,0.307-0.75c0.205-0.204,0.454-0.306,0.749-0.306s0.546,0.102,0.75,0.306
			c0.204,0.204,0.306,0.455,0.306,0.75v19.728c0,0.295-0.103,0.545-0.306,0.749c-0.204,0.204-0.455,0.307-0.75,0.307
			s-0.544-0.103-0.749-0.307c-0.204-0.204-0.307-0.454-0.307-0.749V130.763z"/>
		<path d="M144.632,151.546c-0.295,0-0.545-0.103-0.749-0.307c-0.205-0.204-0.307-0.454-0.307-0.749v-19.762
			c0-0.295,0.102-0.545,0.307-0.749c0.204-0.204,0.454-0.308,0.749-0.308h5.86c1.5,0,2.908,0.291,4.226,0.869
			c1.317,0.579,2.47,1.369,3.458,2.368c0.987,1.001,1.766,2.164,2.333,3.492c0.568,1.329,0.852,2.743,0.852,4.242
			s-0.284,2.913-0.852,4.242c-0.567,1.328-1.346,2.486-2.333,3.475c-0.988,0.987-2.142,1.768-3.458,2.334
			c-1.318,0.568-2.726,0.852-4.226,0.852H144.632z M159.25,140.644c0-1.203-0.227-2.346-0.681-3.424
			c-0.455-1.079-1.08-2.022-1.875-2.828c-0.795-0.807-1.727-1.442-2.793-1.908c-1.068-0.466-2.204-0.699-3.408-0.699h-4.803v17.65
			h4.803c1.204,0,2.339-0.233,3.408-0.699c1.067-0.465,1.998-1.095,2.793-1.891c0.795-0.795,1.419-1.727,1.875-2.794
			C159.022,142.984,159.25,141.848,159.25,140.644z"/>
		<path d="M197.646,140.644c0-1.499,0.284-2.907,0.852-4.225c0.567-1.318,1.34-2.471,2.317-3.458
			c0.977-0.988,2.124-1.766,3.441-2.334s2.727-0.852,4.225-0.852c1.5,0,2.907,0.283,4.225,0.852s2.471,1.346,3.459,2.334
			c0.988,0.987,1.766,2.14,2.334,3.458c0.567,1.317,0.852,2.726,0.852,4.225s-0.284,2.908-0.852,4.225
			c-0.568,1.318-1.346,2.465-2.334,3.441s-2.142,1.75-3.459,2.316c-1.317,0.568-2.725,0.852-4.225,0.852
			c-1.498,0-2.907-0.283-4.225-0.852c-1.317-0.566-2.465-1.34-3.441-2.316c-0.978-0.977-1.75-2.123-2.317-3.441
			C197.931,143.552,197.646,142.143,197.646,140.644z M199.759,140.644c0,1.204,0.228,2.341,0.683,3.407
			c0.453,1.067,1.072,1.993,1.855,2.776c0.785,0.783,1.71,1.403,2.777,1.857c1.068,0.455,2.203,0.682,3.407,0.682
			c1.203,0,2.34-0.227,3.407-0.682c1.067-0.454,1.999-1.074,2.795-1.857c0.794-0.783,1.419-1.709,1.873-2.776
			c0.454-1.066,0.682-2.203,0.682-3.407c0-1.203-0.228-2.34-0.682-3.407s-1.079-1.999-1.873-2.794
			c-0.796-0.795-1.728-1.419-2.795-1.875c-1.067-0.454-2.204-0.681-3.407-0.681c-1.204,0-2.339,0.227-3.407,0.681
			c-1.067,0.456-1.992,1.08-2.777,1.875c-0.783,0.795-1.402,1.727-1.855,2.794C199.986,138.304,199.759,139.44,199.759,140.644z"/>
		<path d="M236.422,140.609c0,1.204,0.226,2.341,0.681,3.407c0.454,1.068,1.073,1.999,1.857,2.794
			c0.783,0.796,1.708,1.426,2.776,1.891c1.067,0.466,2.202,0.699,3.407,0.699c1.271,0,2.458-0.244,3.561-0.733
			c1.102-0.488,2.049-1.163,2.845-2.026c0.182-0.205,0.414-0.342,0.699-0.409c0.283-0.068,0.539-0.023,0.766,0.136
			c0.25,0.205,0.375,0.484,0.375,0.835c0,0.352-0.103,0.643-0.307,0.868c-1,1.091-2.181,1.938-3.543,2.539
			c-1.363,0.602-2.828,0.902-4.396,0.902c-1.499,0-2.908-0.283-4.226-0.852c-1.317-0.566-2.465-1.346-3.44-2.334
			c-0.977-0.987-1.75-2.146-2.316-3.475c-0.568-1.329-0.853-2.743-0.853-4.242s0.284-2.913,0.853-4.242
			c0.566-1.328,1.34-2.487,2.316-3.475c0.976-0.988,2.123-1.772,3.44-2.352c1.317-0.578,2.727-0.869,4.226-0.869
			c1.521,0,2.946,0.296,4.275,0.887c1.329,0.59,2.493,1.396,3.493,2.419c0.182,0.182,0.318,0.409,0.408,0.681
			c0.091,0.273,0.057,0.535-0.103,0.784c-0.182,0.272-0.448,0.421-0.8,0.443c-0.354,0.022-0.653-0.091-0.903-0.341
			c-0.817-0.703-1.771-1.341-2.862-1.909c-1.09-0.566-2.26-0.852-3.509-0.852c-1.205,0-2.34,0.233-3.407,0.699
			c-1.068,0.466-1.993,1.102-2.776,1.908c-0.784,0.806-1.403,1.744-1.857,2.811C236.647,138.27,236.422,139.406,236.422,140.609z"/>
		<path d="M286.643,150.115c0.113,0.272,0.113,0.541,0,0.801c-0.114,0.262-0.307,0.449-0.58,0.562
			c-0.272,0.114-0.539,0.108-0.801-0.016c-0.261-0.125-0.448-0.312-0.562-0.562l-0.817-1.971h-12.856l-0.671,1.971
			c-0.113,0.25-0.301,0.438-0.562,0.562c-0.261,0.124-0.527,0.13-0.8,0.016c-0.272-0.112-0.466-0.3-0.579-0.562
			c-0.114-0.26-0.114-0.528,0-0.801l8.144-19.659c0.067-0.182,0.191-0.358,0.374-0.528c0.182-0.17,0.387-0.256,0.613-0.256
			s0.432,0.08,0.613,0.239s0.317,0.341,0.409,0.545L286.643,150.115z M271.912,146.814h11.119l-5.486-13.19L271.912,146.814z"/>
		<path d="M315.534,137.611c0-0.795-0.153-1.544-0.46-2.249c-0.307-0.703-0.728-1.323-1.261-1.856
			c-0.534-0.534-1.153-0.954-1.857-1.262c-0.704-0.307-1.453-0.46-2.249-0.46c-0.794,0-1.545,0.153-2.248,0.46
			c-0.705,0.308-1.317,0.728-1.84,1.262c-0.523,0.533-0.938,1.153-1.243,1.856c-0.307,0.705-0.46,1.454-0.46,2.249v12.879
			c0,0.295-0.103,0.545-0.307,0.749c-0.205,0.204-0.455,0.307-0.75,0.307c-0.296,0-0.545-0.103-0.75-0.307
			c-0.203-0.204-0.306-0.454-0.306-0.749v-12.879c0-1.09,0.204-2.118,0.612-3.084c0.409-0.965,0.972-1.805,1.687-2.521
			c0.716-0.715,1.556-1.283,2.522-1.703c0.965-0.42,1.992-0.631,3.082-0.631c1.092,0,2.119,0.211,3.084,0.631
			s1.807,0.988,2.521,1.703c0.716,0.717,1.283,1.557,1.703,2.521c0.421,0.966,0.631,1.994,0.631,3.084v12.879
			c0,0.295-0.103,0.545-0.307,0.749s-0.455,0.307-0.75,0.307s-0.544-0.103-0.749-0.307c-0.204-0.204-0.307-0.454-0.307-0.749
			V137.611z"/>
		<path d="M351.037,150.115c0.113,0.272,0.113,0.541,0,0.801c-0.114,0.262-0.307,0.449-0.58,0.562
			c-0.272,0.114-0.539,0.108-0.801-0.016c-0.261-0.125-0.448-0.312-0.562-0.562l-0.718-2.044h-12.681l-0.946,2.044
			c-0.113,0.25-0.301,0.438-0.562,0.562c-0.261,0.124-0.527,0.13-0.8,0.016c-0.272-0.112-0.466-0.3-0.579-0.562
			c-0.114-0.26-0.114-0.528,0-0.801l8.144-19.659c0.067-0.182,0.191-0.358,0.374-0.528c0.182-0.17,0.387-0.256,0.613-0.256
			s0.432,0.08,0.613,0.239s0.317,0.341,0.409,0.545L351.037,150.115z M336.583,146.742h10.942l-5.586-13.118L336.583,146.742z"/>
	</g>
	
		<line fill="none" stroke="#000000" stroke-width="2" stroke-linecap="round" stroke-linejoin="round" stroke-miterlimit="10" x1="10" y1="162" x2="42" y2="162"/>
	
		<line fill="none" stroke="#000000" stroke-width="2" stroke-linecap="round" stroke-linejoin="round" stroke-miterlimit="10" x1="303" y1="120" x2="316" y2="120"/>
</g>
<g>
	<linearGradient id="SVGID_2_" gradientUnits="userSpaceOnUse" x1="215.8896" y1="55.3257" x2="270.3477" y2="55.3257">
		<stop  offset="0" style="stop-color:#8364E9"/>
		<stop  offset="1" style="stop-color:#5687E0"/>
	</linearGradient>
	<path fill="url(#SVGID_2_)" d="M215.89,96l45.525-78.962c1.32-2.289,4.248-3.064,6.538-1.741c2.29,1.322,3.074,4.234,1.752,6.523
		L226.86,96C225.224,96,217.006,96,215.89,96z"/>
</g>
<g>
	<path d="M107.22,150.926c-0.13,0.223-0.354,0.361-0.668,0.418c-0.315,0.055-0.592-0.006-0.832-0.184l-8.247-5.902v5.168
		c0,0.289-0.098,0.533-0.293,0.734c-0.196,0.199-0.435,0.3-0.717,0.3c-0.283,0-0.521-0.101-0.717-0.3
		c-0.195-0.201-0.293-0.445-0.293-0.734v-19.637c0-0.289,0.098-0.533,0.293-0.734c0.196-0.199,0.435-0.299,0.717-0.299h5.542
		c1.064,0,2.059,0.205,2.982,0.616c0.923,0.411,1.728,0.967,2.413,1.667c0.684,0.7,1.227,1.523,1.629,2.467
		c0.402,0.945,0.604,1.951,0.604,3.018s-0.202,2.072-0.604,3.018c-0.402,0.945-0.945,1.768-1.629,2.467
		c-0.685,0.7-1.489,1.25-2.413,1.65c-0.924,0.4-1.918,0.6-2.982,0.6h-0.978l5.9,4.234c0.239,0.156,0.386,0.373,0.44,0.65
		C107.421,150.421,107.372,150.682,107.22,150.926z M97.474,131.822v11.369h4.531c0.782,0,1.51-0.15,2.184-0.45
		c0.673-0.3,1.266-0.705,1.776-1.217c0.51-0.511,0.913-1.111,1.206-1.8c0.293-0.689,0.44-1.423,0.44-2.201
		c0-0.777-0.146-1.512-0.44-2.2s-0.696-1.295-1.206-1.817c-0.511-0.521-1.103-0.934-1.776-1.233c-0.674-0.3-1.402-0.45-2.184-0.45
		H97.474z"/>
</g>
</svg>
