<?xml version="1.0" encoding="utf-8"?>
<!-- Generator: Adobe Illustrator 16.0.0, SVG Export Plug-In . SVG Version: 6.00 Build 0)  -->
<!DOCTYPE svg PUBLIC "-//W3C//DTD SVG 1.1//EN" "http://www.w3.org/Graphics/SVG/1.1/DTD/svg11.dtd">
<svg version="1.1" id="Layer_1" xmlns="http://www.w3.org/2000/svg" xmlns:xlink="http://www.w3.org/1999/xlink" x="0px" y="0px"
	 width="107.812px" height="136.498px" viewBox="0 0 107.812 136.498" enable-background="new 0 0 107.812 136.498"
	 xml:space="preserve">
<g>
	<path fill="none" stroke="#FFFFFF" stroke-width="2" stroke-miterlimit="10" d="M39.656,132.498h47.024
		c0,0,8.386-18.229,9.842-31.719c1.155-10.664,0.164-26.582,0-29.523c-0.16-2.944-4.373-12.396-13.849-5.835
		c-3.646-12.03-12.029-7.653-14.586-6.194c-1.071-6.226-8.361-11.301-15.469-5.47c0-5.104,0-17.499,0-17.499s0-8.108-7.402-8.108
		c-8.638,0-8.476,7.746-8.476,7.746v54.315L21.064,74.9c0,0-4.373-5.832-9.842-1.457c-5.467,4.371-1.093,10.935-1.093,10.935
		L39.656,132.498z"/>
	
		<line fill="none" stroke="#FFFFFF" stroke-width="2" stroke-linecap="round" stroke-miterlimit="10" x1="68.088" y1="59.227" x2="68.088" y2="74.508"/>
	
		<line fill="none" stroke="#FFFFFF" stroke-width="2" stroke-linecap="round" stroke-miterlimit="10" x1="82.674" y1="66.517" x2="82.674" y2="75.601"/>
	
		<line fill="none" stroke="#FFFFFF" stroke-width="2" stroke-linecap="round" stroke-miterlimit="10" x1="52.619" y1="74.508" x2="52.619" y2="53.757"/>
</g>
<path fill="none" stroke="#FFFFFF" stroke-width="2" stroke-miterlimit="10" d="M36.741,43.902v-8.007c0,0-0.162-7.746,8.476-7.746
	c7.402,0,7.402,8.108,7.402,8.108s0,3.449,0,7.458c4.938-2.819,8.272-8.122,8.272-14.214c0-9.038-7.328-16.366-16.366-16.366
	c-9.041,0-16.367,7.328-16.367,16.366C28.158,35.724,31.63,41.133,36.741,43.902z"/>
<path fill="none" stroke="#FFFFFF" stroke-width="2" stroke-miterlimit="10" d="M36.741,54.131V35.896c0,0-0.162-7.746,8.476-7.746
	c7.402,0,7.402,8.108,7.402,8.108s0,12.396,0,17.499c2.039-1.673,4.092-2.443,6.008-2.553c7.36-4.674,12.25-12.891,12.25-22.256
	c0-14.554-11.799-26.353-26.353-26.353S18.172,14.395,18.172,28.948C18.172,40.792,25.987,50.811,36.741,54.131z"/>
</svg>
